<svg xmlns="http://www.w3.org/2000/svg" xmlns:xlink="http://www.w3.org/1999/xlink" id="Layer_1" x="0" y="0" version="1.1" viewBox="-42 408.9 511 24" xml:space="preserve" style="enable-background:new -42 408.9 511 24"><style type="text/css">.st0{fill:none}.st1,.st2{fill:none;stroke:#343434;stroke-width:2;stroke-linecap:square}.st2{stroke:url(#path-3_2_)}.st3,.st4{fill:#fff;stroke:#343434;stroke-width:2}.st4{fill:#292;stroke:#292}.st5{fill:#fff}</style><title>wizard</title><desc>Created with Sketch.</desc><g id="Page-1"><g id="_x30_2-auth-g" transform="translate(-92.000000, -58.000000)"><g id="wizard" transform="translate(94.000000, 60.000000)"><g id="Line"><g><path id="path-1" d="M223,418.9h220" class="st0"/></g><g><path id="path-1_1_" d="M223,418.9h220" class="st0"/></g><g><path id="path-1_2_" d="M222,418.9h222" class="st1"/></g></g><g id="Line-Copy"><g><path id="path-3" d="M-20,418.9h220" class="st0"/></g><g><linearGradient id="path-3_2_" x1="-85.91" x2="-84.908" y1="430.479" y2="430.981" gradientTransform="matrix(220 0 0 -1 18857.998 849.67)" gradientUnits="userSpaceOnUse"><stop offset="0" style="stop-color:#292"/><stop offset="1" style="stop-color:#343434"/></linearGradient><path id="path-3_1_" d="M-21,418.9h222" class="st2"/></g></g><g id="icon---check-copy-2" transform="translate(487.000000, 0.000000)"><path id="Path-Copy" d="M-42,418.6c0,5.4,4.5,9.7,10,9.7s10-4.4,10-9.7c0-5.4-4.5-9.7-10-9.7S-42,413.2-42,418.6z" class="st3"/></g><g id="icon---check-copy-2_1_" transform="translate(243.000000, 0.000000)"><g id="Path-Copy_1_"><g><path id="path-4" d="M-42,418.6c0,5.4,4.5,9.7,10,9.7s10-4.4,10-9.7c0-5.4-4.5-9.7-10-9.7S-42,413.2-42,418.6z" class="st3"/></g><g><path id="path-4_1_" d="M-42,418.6c0,5.4,4.5,9.7,10,9.7s10-4.4,10-9.7c0-5.4-4.5-9.7-10-9.7S-42,413.2-42,418.6z" class="st0"/></g><g><path id="path-4_2_" d="M-42,418.6c0,5.4,4.5,9.7,10,9.7s10-4.4,10-9.7c0-5.4-4.5-9.7-10-9.7S-42,413.2-42,418.6z" class="st0"/></g></g></g><g id="icon---check-copy-2_2_"><path id="Path-Copy_2_" d="M-42,418.6c0,5.4,4.5,9.7,10,9.7s10-4.4,10-9.7c0-5.4-4.5-9.7-10-9.7S-42,413.2-42,418.6 z" class="st4"/><path id="Rectangle-9" d="M-32.7,422.9C-32.7,422.9-32.7,422.9-32.7,422.9l6.1-6.1c0.4-0.4,0.4-1.1,0-1.6 c-0.4-0.4-1.1-0.4-1.6,0l-5.3,5.3l-2.4-2.4c-0.4-0.4-1.1-0.4-1.5,0c-0.4,0.4-0.4,1.1,0,1.5l3.2,3.2 C-33.8,423.4-33.1,423.4-32.7,422.9C-32.7,422.9-32.7,422.9-32.7,422.9L-32.7,422.9z" class="st5"/></g></g></g></g></svg>