<svg xmlns="http://www.w3.org/2000/svg" xmlns:xlink="http://www.w3.org/1999/xlink" id="Layer_1" x="0" y="0" enable-background="new 0 0 60 60" version="1.1" viewBox="0 0 60 60" xml:space="preserve"><g><circle cx="30" cy="30" r="29.5" fill="none" stroke="#DEDDDD" stroke-dasharray="3.985 1.992" stroke-miterlimit="10" stroke-width=".983"/></g><g id="shapes_1_"><g id="status_1_"><path id="clock_1_" fill="#DEDEDD" d="M32.6,29.3h-2.1v-5c0-0.4-0.3-0.7-0.7-0.7c-0.4,0-0.7,0.3-0.7,0.7V30 c0,0.4,0.3,0.7,0.7,0.7h2.8c0.4,0,0.7-0.3,0.7-0.7S33,29.3,32.6,29.3z" display="none"/><path id="times_1_" fill="#DEDEDD" d="M33.3,31.6L31.8,30l1.6-1.6c0.3-0.3,0.3-0.7,0-1l-1-1c-0.3-0.3-0.7-0.3-1,0 l-1.5,1.6l-1.6-1.6c-0.3-0.3-0.7-0.3-1,0l-1,1c-0.3,0.3-0.3,0.7,0,1l1.6,1.6l-1.6,1.6c-0.3,0.3-0.3,0.7,0,1l1,1 c0.3,0.3,0.7,0.3,1,0l1.6-1.6l1.6,1.6c0.3,0.3,0.7,0.3,1,0l1-1C33.6,32.3,33.6,31.8,33.3,31.6z" display="none"/><path id="check_1_" fill="#DEDEDD" d="M34.3,28.4l-4,4l-1,1c-0.3,0.3-0.7,0.3-1,0l-1-1l-2-2c-0.3-0.3-0.3-0.7,0-1l1-1 c0.3-0.3,0.7-0.3,1,0l1.6,1.6l3.5-3.5c0.3-0.3,0.7-0.3,1,0l1,1C34.6,27.7,34.6,28.2,34.3,28.4z"/><circle id="circle_1_" cx="29.8" cy="30" r="3.6" fill="#DEDEDD" display="none"/><path id="turn_2_" fill="#DEDEDD" d="M29.8,15c-7,0-12.9,4.8-14.5,11.3c0,0.1-0.1,0.1-0.1,0.2c0,0.4,0.3,0.7,0.7,0.7H22 c0.3,0,0.5-0.2,0.7-0.4v-0.1c1.2-2.7,4-4.6,7.1-4.6c4.3,0,7.9,3.5,7.9,7.9s-3.5,7.9-7.9,7.9c-3.2,0-5.9-1.9-7.1-4.6v-0.1 c-0.1-0.3-0.4-0.4-0.7-0.4h-6.1c-0.4,0-0.7,0.3-0.7,0.7c0,0.1,0,0.1,0.1,0.2C16.9,40.2,22.8,45,29.8,45c8.3,0,15-6.7,15-15 S38.1,15,29.8,15z"/></g></g></svg>