<svg xmlns="http://www.w3.org/2000/svg" xmlns:xlink="http://www.w3.org/1999/xlink" id="Layer_1" x="0" y="0" enable-background="new 0 0 60 60" version="1.1" viewBox="0 0 60 60" xml:space="preserve"><g><circle id="circle_2_" cx="29.8" cy="30" r="3.6" fill="#DDD"/><path id="turn_1_" fill="#DDD" d="M29.8,15c-7,0-12.9,4.8-14.5,11.2c0,0.1,0,0.1,0,0.2c0,0.4,0.3,0.7,0.7,0.7h6 c0.3,0,0.5-0.2,0.6-0.4c0,0,0,0,0,0c1.2-2.7,4-4.6,7.1-4.6c4.3,0,7.9,3.5,7.9,7.9c0,4.3-3.5,7.9-7.9,7.9c-3.2,0-5.9-1.9-7.1-4.6 c0,0,0,0,0,0c-0.1-0.2-0.4-0.4-0.6-0.4h-6c-0.4,0-0.7,0.3-0.7,0.7c0,0.1,0,0.1,0,0.2C16.9,40.2,22.8,45,29.8,45c8.3,0,15-6.7,15-15 S38.1,15,29.8,15z"/></g><g><circle cx="30" cy="30" r="29.5" fill="none" stroke="#DEDDDD" stroke-dasharray="3.985 1.992" stroke-miterlimit="10" stroke-width=".983"/></g></svg>