<svg xmlns="http://www.w3.org/2000/svg" xmlns:svg="http://www.w3.org/2000/svg" id="svg2" width="100%" height="100%" class="shopify-logo" data-reactid=".1.2.2.0.0.0" version="1.1" viewBox="0 0 55.7 62.487"><metadata id="metadata10"/><path id="path4" d="m 37.5,7.4866001 -1.9,0.6 c -0.8,-2.5 -2,-4.2 -3.4,-5.2 -1.1,-0.7 -2.2,-1.1 -3.5,-1 -0.3,-0.3 -0.5,-0.6 -0.9,-0.90000004 -1.4,-1.1 -3.2,-1.3 -5.3,-0.5 C 16.1,2.7866001 13.4,11.0866 12.4,15.2866 l -5.6,1.7 c 0,0 -1.3,0.4 -1.6,0.7 -0.3,0.4 -0.4,1.5 -0.4,1.5 l -4.8,36.6 35.6,6.7 2.7,-54.9999999 c -0.4,-0.1 -0.8,0 -0.8,0 z m -9.1,2.7999999 -6.2,1.9 c 0.8,-3.1999999 2.4,-6.4999999 5.4,-7.7999999 0.7,1.7 0.8,3.9 0.8,5.8999999 z M 23.2,2.4866001 c 1.3,-0.5 2.3,-0.5 3.1,0.1 -4,1.8 -5.8,6.5 -6.6,10.3999999 l -4.9,1.5 c 1.1,-4 3.6,-10.1999999 8.4,-11.9999999 z M 26.7,29.3866 c -0.3,-0.1 -0.6,-0.3 -1,-0.4 -0.4,-0.1 -0.8,-0.3 -1.2,-0.4 -0.5,-0.1 -1,-0.2 -1.5,-0.2 -0.5,-0.1 -1,-0.1 -1.6,0 -0.5,0 -1,0.1 -1.4,0.3 -0.4,0.1 -0.7,0.3 -1,0.6 -0.3,0.2 -0.5,0.5 -0.7,0.9 -0.2,0.3 -0.2,0.7 -0.3,1.1 0,0.3 0,0.6 0.1,0.9 0.1,0.3 0.3,0.6 0.5,0.8 0.2,0.3 0.5,0.6 0.9,0.8 0.4,0.3 0.8,0.6 1.3,0.9 0.7,0.4 1.4,0.9 2,1.5 0.7,0.6 1.3,1.2 1.9,2 0.6,0.7 1,1.6 1.3,2.5 0.3,0.9 0.5,2 0.4,3.1 -0.1,1.9 -0.5,3.5 -1.2,4.8 -0.7,1.3 -1.6,2.4 -2.7,3.1 -1.1,0.7 -2.3,1.2 -3.7,1.4 -1.3,0.2 -2.8,0.1 -4.2,-0.2 0,0 0,0 0,0 0,0 0,0 0,0 0,0 0,0 0,0 0,0 0,0 0,0 -0.7,-0.2 -1.4,-0.4 -2,-0.6 -0.6,-0.2 -1.2,-0.5 -1.7,-0.8 -0.5,-0.3 -1,-0.6 -1.4,-1 -0.4,-0.3 -0.7,-0.7 -1,-1 l 1.6,-5.4 c 0.3,0.2 0.6,0.5 1,0.8 0.4,0.3 0.8,0.6 1.3,0.8 0.5,0.3 1,0.5 1.5,0.7 0.5,0.2 1.1,0.4 1.6,0.4 0.5,0.1 0.9,0.1 1.3,0 0.4,-0.1 0.7,-0.2 0.9,-0.4 0.3,-0.2 0.5,-0.5 0.6,-0.8 0.1,-0.3 0.2,-0.7 0.2,-1 0,-0.4 0,-0.7 -0.1,-1.1 -0.1,-0.3 -0.2,-0.7 -0.5,-1 -0.2,-0.3 -0.5,-0.7 -0.9,-1 -0.4,-0.3 -0.8,-0.7 -1.3,-1.1 -0.6,-0.5 -1.2,-1 -1.7,-1.5 -0.5,-0.5 -1,-1.1 -1.3,-1.8 -0.4,-0.6 -0.7,-1.3 -0.9,-2 -0.2,-0.7 -0.3,-1.5 -0.2,-2.4 0.1,-1.4 0.4,-2.8 0.8,-4 0.5,-1.2 1.2,-2.3 2.1,-3.2 0.9,-1 2,-1.8 3.2,-2.4 1.3,-0.6 2.7,-1.1 4.4,-1.3 0.8,-0.1 1.5,-0.1 2.2,-0.1 0.7,0 1.3,0 1.9,0.1 0.6,0.1 1.2,0.2 1.7,0.3 0.5,0.1 0.9,0.3 1.3,0.5 l -2.5,6.8 z M 30.5,9.5866001 c 0,-0.2 0,-0.5 0,-0.7 -0.1,-1.9 -0.3,-3.5 -0.8,-4.9 0.5,0 0.9,0.2 1.3,0.5 1.1,0.8 1.9,2.4 2.5,4.2 l -3,0.9 z M 55.7,58.2866 l -19.2,4.2 2.7,-54.9999999 c 0.2,0 0.3,0.1 0.5,0.2 l 3.7,3.6999999 5,0.4 c 0,0 0.2,0 0.3,0.1 0.2,0.1 0.2,0.4 0.2,0.4 l 6.8,46 z" class="logomark" data-reactid=".1.2.2.0.0.0.0" style="fill:#7bb460;fill-opacity:1;fill-rule:nonzero"/></svg>