<svg xmlns="http://www.w3.org/2000/svg" xmlns:xlink="http://www.w3.org/1999/xlink" width="134" height="122" version="1.1" viewBox="0 0 134 122"><title>icon</title><desc>Created with Sketch.</desc><defs><linearGradient id="linearGradient-1" x1="50%" x2="50%" y1="0%" y2="81.648%"><stop offset="0%" stop-color="#DFECF0"/><stop offset="100%" stop-color="#F9FCFC"/></linearGradient></defs><g id="circleci" fill="none" fill-rule="evenodd" stroke="none" stroke-width="1"><g id="Features"><g transform="translate(-350.000000, -1247.000000) translate(349.000000, 775.000000)"><g id="Database-management" transform="translate(1.000000, 466.000000)"><g id="icon" transform="translate(0.000000, 6.000000)"><path id="Rectangle-87" fill="#9DA5A7" d="M9.99521068,27 C7.236432,27 5,29.2294619 5,31.9979064 L5,100.002094 C5,102.762361 7.23141709,105 9.99521068,105 L124.004789,105 C126.763568,105 129,102.770538 129,100.002094 L129,31.9979064 C129,29.2376389 126.768583,27 124.004789,27 L9.99521068,27 Z"/><rect id="Rectangle-88" width="104" height="56" x="15" y="0" fill="url(#linearGradient-1)" rx="4"/><rect id="Rectangle-89" width="22" height="24" x="25" y="10" fill="#C8D5D9" rx="2"/><rect id="Rectangle-90" width="3" height="24" x="50" y="10" fill="#C8D4D9" rx="2"/><path id="Rectangle-86" fill="#B9BEBF" d="M5.00839643,44 C2.24233546,44 0.142914226,46.2294619 0.320378616,48.9979064 L4.67962138,117.002094 C4.85656161,119.762361 7.23141709,122 9.99521068,122 L124.004789,122 C126.763568,122 129.142914,119.770538 129.320379,117.002094 L133.679621,48.9979064 C133.856562,46.2376389 131.758273,44 128.991604,44 L5.00839643,44 Z"/><path id="Rectangle-91" fill="#C8D4D9" d="M65.0061411,12 C63.89818,12 63,12.8877296 63,14 L63,14 C63,15.1045695 63.8982417,16 65.0061411,16 L106.993859,16 C108.10182,16 109,15.1122704 109,14 L109,14 C109,12.8954305 108.101758,12 106.993859,12 L65.0061411,12 Z M64.9940603,20 C63.8927712,20 63,20.8877296 63,22 L63,22 C63,23.1045695 63.8945138,24 64.9940603,24 L77.0059397,24 C78.1072288,24 79,23.1122704 79,22 L79,22 C79,20.8954305 78.1054862,20 77.0059397,20 L64.9940603,20 Z M64.9970047,28 C63.8940894,28 63,28.8877296 63,30 L63,30 C63,31.1045695 63.8949789,32 64.9970047,32 L87.0029953,32 C88.1059106,32 89,31.1122704 89,30 L89,30 C89,28.8954305 88.1050211,28 87.0029953,28 L64.9970047,28 Z"/></g></g></g></g></g></svg>