<svg xmlns="http://www.w3.org/2000/svg" xmlns:xlink="http://www.w3.org/1999/xlink" width="73" height="73" version="1.1" viewBox="0 0 73 73"><title>Ruby logo + Ruby</title><desc>Created with Sketch.</desc><defs><filter id="filter-1" width="200%" height="200%" x="-50%" y="-50%" filterUnits="objectBoundingBox"><feOffset dx="0" dy="1" in="SourceAlpha" result="shadowOffsetOuter1"/><feGaussianBlur in="shadowOffsetOuter1" result="shadowBlurOuter1" stdDeviation="2.5"/><feColorMatrix in="shadowBlurOuter1" result="shadowMatrixOuter1" type="matrix" values="0 0 0 0 0 0 0 0 0 0 0 0 0 0 0 0 0 0 0.35 0"/><feMerge><feMergeNode in="shadowMatrixOuter1"/><feMergeNode in="SourceGraphic"/></feMerge></filter><linearGradient id="linearGradient-2" x1="84.75%" x2="58.254%" y1="111.399%" y2="64.584%"><stop offset="0%" stop-color="#FB7655"/><stop offset="0%" stop-color="#FB7655"/><stop offset="41%" stop-color="#E42B1E"/><stop offset="99%" stop-color="#900"/><stop offset="100%" stop-color="#900"/></linearGradient><linearGradient id="linearGradient-3" x1="116.651%" x2="1.746%" y1="60.89%" y2="19.288%"><stop offset="0%" stop-color="#871101"/><stop offset="0%" stop-color="#871101"/><stop offset="99%" stop-color="#911209"/><stop offset="100%" stop-color="#911209"/></linearGradient><linearGradient id="linearGradient-4" x1="75.774%" x2="38.978%" y1="219.327%" y2="7.829%"><stop offset="0%" stop-color="#871101"/><stop offset="0%" stop-color="#871101"/><stop offset="99%" stop-color="#911209"/><stop offset="100%" stop-color="#911209"/></linearGradient><linearGradient id="linearGradient-5" x1="50.012%" x2="66.483%" y1="7.234%" y2="79.135%"><stop offset="0%" stop-color="#FFF"/><stop offset="0%" stop-color="#FFF"/><stop offset="23%" stop-color="#E57252"/><stop offset="46%" stop-color="#DE3B20"/><stop offset="99%" stop-color="#A60003"/><stop offset="100%" stop-color="#A60003"/></linearGradient><linearGradient id="linearGradient-6" x1="46.174%" x2="49.932%" y1="16.348%" y2="83.047%"><stop offset="0%" stop-color="#FFF"/><stop offset="0%" stop-color="#FFF"/><stop offset="23%" stop-color="#E4714E"/><stop offset="56%" stop-color="#BE1A0D"/><stop offset="99%" stop-color="#A80D00"/><stop offset="100%" stop-color="#A80D00"/></linearGradient><linearGradient id="linearGradient-7" x1="36.965%" x2="49.528%" y1="15.594%" y2="92.478%"><stop offset="0%" stop-color="#FFF"/><stop offset="0%" stop-color="#FFF"/><stop offset="18%" stop-color="#E46342"/><stop offset="40%" stop-color="#C82410"/><stop offset="99%" stop-color="#A80D00"/><stop offset="100%" stop-color="#A80D00"/></linearGradient><linearGradient id="linearGradient-8" x1="13.609%" x2="85.764%" y1="58.346%" y2="-46.717%"><stop offset="0%" stop-color="#FFF"/><stop offset="0%" stop-color="#FFF"/><stop offset="54%" stop-color="#C81F11"/><stop offset="99%" stop-color="#BF0905"/><stop offset="100%" stop-color="#BF0905"/></linearGradient><linearGradient id="linearGradient-9" x1="27.624%" x2="50.745%" y1="21.135%" y2="79.056%"><stop offset="0%" stop-color="#FFF"/><stop offset="0%" stop-color="#FFF"/><stop offset="31%" stop-color="#DE4024"/><stop offset="99%" stop-color="#BF190B"/><stop offset="100%" stop-color="#BF190B"/></linearGradient><linearGradient id="linearGradient-10" x1="-20.667%" x2="104.242%" y1="122.282%" y2="-6.342%"><stop offset="0%" stop-color="#BD0012"/><stop offset="0%" stop-color="#BD0012"/><stop offset="7%" stop-color="#FFF"/><stop offset="17%" stop-color="#FFF"/><stop offset="27%" stop-color="#C82F1C"/><stop offset="33%" stop-color="#820C01"/><stop offset="46%" stop-color="#A31601"/><stop offset="72%" stop-color="#B31301"/><stop offset="99%" stop-color="#E82609"/><stop offset="100%" stop-color="#E82609"/></linearGradient><linearGradient id="linearGradient-11" x1="58.792%" x2="11.964%" y1="65.205%" y2="50.128%"><stop offset="0%" stop-color="#8C0C01"/><stop offset="0%" stop-color="#8C0C01"/><stop offset="54%" stop-color="#990C00"/><stop offset="99%" stop-color="#A80D0E"/><stop offset="100%" stop-color="#A80D0E"/></linearGradient><linearGradient id="linearGradient-12" x1="79.319%" x2="23.088%" y1="62.754%" y2="17.888%"><stop offset="0%" stop-color="#7E110B"/><stop offset="0%" stop-color="#7E110B"/><stop offset="99%" stop-color="#9E0C00"/><stop offset="100%" stop-color="#9E0C00"/></linearGradient><linearGradient id="linearGradient-13" x1="92.88%" x2="59.841%" y1="74.122%" y2="39.704%"><stop offset="0%" stop-color="#79130D"/><stop offset="0%" stop-color="#79130D"/><stop offset="99%" stop-color="#9E120B"/><stop offset="100%" stop-color="#9E120B"/></linearGradient><radialGradient id="radialGradient-14" cx="32.001%" cy="40.21%" r="69.573%" fx="32.001%" fy="40.21%"><stop offset="0%" stop-color="#A80D00"/><stop offset="0%" stop-color="#A80D00"/><stop offset="99%" stop-color="#7E0E08"/><stop offset="100%" stop-color="#7E0E08"/></radialGradient><radialGradient id="radialGradient-15" cx="13.549%" cy="40.86%" r="88.386%" fx="13.549%" fy="40.86%"><stop offset="0%" stop-color="#A30C00"/><stop offset="0%" stop-color="#A30C00"/><stop offset="99%" stop-color="#800E08"/><stop offset="100%" stop-color="#800E08"/></radialGradient><linearGradient id="linearGradient-16" x1="56.57%" x2="3.105%" y1="101.717%" y2="11.993%"><stop offset="0%" stop-color="#8B2114"/><stop offset="0%" stop-color="#8B2114"/><stop offset="43%" stop-color="#9E100A"/><stop offset="99%" stop-color="#B3100C"/><stop offset="100%" stop-color="#B3100C"/></linearGradient><linearGradient id="linearGradient-17" x1="30.87%" x2="92.471%" y1="35.599%" y2="100.694%"><stop offset="0%" stop-color="#B31000"/><stop offset="0%" stop-color="#B31000"/><stop offset="44%" stop-color="#910F08"/><stop offset="99%" stop-color="#791C12"/><stop offset="100%" stop-color="#791C12"/></linearGradient></defs><g id="circleci" fill="none" fill-rule="evenodd" stroke="none" stroke-width="1"><g id="Ruby"><g transform="translate(-664.000000, -299.000000) translate(100.000000, 137.000000)"><g id="Ruby-logo-+-Ruby" transform="translate(569.000000, 166.000000)"><g id="Ruby-logo"><circle id="Oval-6" cx="31.5" cy="31.5" r="31.5" fill="#FFF" filter="url(#filter-1)"/><g id="Ruby-2" transform="translate(14.000000, 14.000000)"><path id="polygon3282" fill="url(#linearGradient-2)" d="M25.5833333,21.735 L6.73,32.93 L31.1415,31.2735 L33.0216667,6.65833333 L25.5833333,21.735 Z"/><path id="polygon3293" fill="url(#linearGradient-3)" d="M31.1815,31.2566667 L29.0833333,16.775 L23.3681667,24.3216667 L31.1815,31.2566667 Z"/><path id="polygon3304" fill="url(#linearGradient-4)" d="M31.2098333,31.2566667 L15.8383333,30.05 L6.81166667,32.8985 L31.2098333,31.2566667 Z"/><path id="polygon3319" fill="url(#linearGradient-5)" d="M6.83333333,32.9016667 L10.6733333,20.3216667 L2.22333333,22.1285 L6.83333333,32.9016667 Z"/><path id="polygon3334" fill="url(#linearGradient-6)" d="M23.3666667,24.3633333 L19.8333333,10.5233333 L9.72166667,20.0016667 L23.3666667,24.3633333 Z"/><path id="polygon3349" fill="url(#linearGradient-7)" d="M32.22,10.7183333 L22.6616667,2.91166667 L20,11.5166667 L32.22,10.7183333 Z"/><path id="polygon3362" fill="url(#linearGradient-8)" d="M27.75,0.128333333 L22.1283333,3.235 L18.5816667,0.0866666667 L27.75,0.128333333 Z"/><path id="polygon3375" fill="url(#linearGradient-9)" d="M0,26.3483333 L2.355,22.0533333 L0.45,16.9366667 L0,26.3483333 Z"/><path id="path3377" fill="#FFF" d="M0.323333333,16.775 L2.24,22.2116667 L10.5683333,20.3431667 L20.0766667,11.5065 L22.76,2.98333333 L18.5348333,0 L11.3515,2.68833333 C9.08833333,4.79333333 4.69666667,8.95833333 4.53833333,9.03666667 C4.38166667,9.11666667 1.63833333,14.3016667 0.323333333,16.775 L0.323333333,16.775 Z"/><path id="path3400" fill="url(#linearGradient-10)" d="M7.05333333,7.00833333 C11.9583333,2.145 18.2816667,-0.728333333 20.7083333,1.72 C23.1335,4.16833333 20.5616667,10.1183333 15.6566667,14.98 C10.7516667,19.8416667 4.50666667,22.8733333 2.08166667,20.425 C-0.345,17.9783333 2.14833333,11.87 7.05333333,7.00833333 L7.05333333,7.00833333 Z"/><path id="path3413" fill="url(#linearGradient-11)" d="M6.83333333,32.8966667 L10.6433333,20.2766667 L23.2966667,24.3416667 C18.7216667,28.6316667 13.6333333,32.2583333 6.83333333,32.8966667 L6.83333333,32.8966667 Z"/><path id="path3424" fill="url(#linearGradient-12)" d="M20.0933333,11.4816667 L23.3416667,24.3483333 C27.1633333,20.33 30.5933333,16.01 32.2731667,10.6666667 L20.0933333,11.4816667 L20.0933333,11.4816667 Z"/><path id="path3435" fill="url(#linearGradient-13)" d="M32.24,10.7316667 C33.54,6.80833333 33.84,1.18 27.7098333,0.135 L22.6798333,2.91333333 L32.24,10.7316667 L32.24,10.7316667 Z"/><path id="path3437" fill="#9E1209" d="M0,26.2916667 C0.18,32.7668333 4.85166667,32.8633333 6.84166667,32.9201667 L2.245,22.185 L0,26.2916667 L0,26.2916667 Z"/><path id="path3448" fill="url(#radialGradient-14)" d="M20.1115,11.5016667 C23.0481667,13.3066667 28.9666667,16.9316667 29.0866667,16.9983333 C29.2731667,17.1033333 31.6383333,13.01 32.175,10.6966667 L20.1115,11.5016667 L20.1115,11.5016667 Z"/><path id="path3459" fill="url(#radialGradient-15)" d="M10.6383333,20.2766667 L15.7316667,30.1033333 C18.7433333,28.47 21.1016667,26.48 23.2616667,24.3483333 L10.6383333,20.2766667 L10.6383333,20.2766667 Z"/><path id="path3472" fill="url(#linearGradient-16)" d="M2.225,22.1983333 L1.50333333,30.7916667 C2.865,32.6516667 4.73833333,32.8133333 6.70333333,32.6683333 C5.28166667,29.13 2.44166667,22.055 2.225,22.1983333 L2.225,22.1983333 Z"/><path id="path3485" fill="url(#linearGradient-17)" d="M22.65,2.935 L32.7683333,4.355 C32.2283333,2.06666667 30.57,0.59 27.7433333,0.128333333 L22.65,2.935 L22.65,2.935 Z"/></g></g></g></g></g></g></svg>