<svg xmlns="http://www.w3.org/2000/svg" xmlns:xlink="http://www.w3.org/1999/xlink" id="Layer_1" x="0" y="0" enable-background="new 0 0 214 114" version="1.1" viewBox="0 0 214 114" xml:space="preserve"><g><path fill="#010101" d="M210.8,113.9h3.2V51.1c0-28.2-22.8-51-51-51H86.1c-2.3,1.4-5.5,2.2-9,2.2c-3.5,0-6.7-0.8-9-2.2H0v3.9h164.7 c0.4,0,0.9,0,1.3,0c0.1,0,0.3,0,0.4,0c0.3,0,0.6,0,0.9,0c0.2,0,0.3,0,0.5,0c0.3,0,0.5,0,0.8,0.1c0.2,0,0.3,0,0.5,0 c0.3,0,0.5,0.1,0.8,0.1c0.2,0,0.3,0,0.5,0.1c0.3,0,0.6,0.1,0.8,0.1c0.1,0,0.3,0,0.4,0.1c0.4,0.1,0.7,0.1,1,0.2c0.1,0,0.1,0,0.2,0 c0.4,0.1,0.8,0.2,1.2,0.2c0.1,0,0.2,0,0.3,0.1l0.9,0.2c0.1,0,0.3,0.1,0.4,0.1c0.3,0.1,0.5,0.1,0.8,0.2c0.1,0,0.3,0.1,0.4,0.1 c0.3,0.1,0.5,0.1,0.8,0.2c0.1,0,0.3,0.1,0.4,0.1c0.3,0.1,0.5,0.2,0.8,0.2c0.1,0,0.2,0.1,0.4,0.1c0.3,0.1,0.6,0.2,1,0.3 c0.1,0,0.1,0,0.2,0.1c0.4,0.1,0.8,0.3,1.2,0.4c0,0,0.1,0,0.2,0.1c0.3,0.1,0.6,0.3,1,0.4c0.1,0,0.2,0.1,0.3,0.1 c0.3,0.1,0.5,0.2,0.8,0.4c0.1,0.1,0.2,0.1,0.4,0.2c0.2,0.1,0.5,0.2,0.8,0.4c0.1,0.1,0.2,0.1,0.4,0.2c0.3,0.1,0.5,0.3,0.8,0.4 c0.1,0.1,0.2,0.1,0.3,0.2c0.3,0.2,0.6,0.3,0.9,0.5c0.1,0,0.1,0.1,0.2,0.1c0.7,0.4,1.4,0.8,2.1,1.3c0.1,0,0.1,0.1,0.2,0.1 c0.3,0.2,0.5,0.4,0.8,0.5c0.1,0.1,0.2,0.1,0.3,0.2c0.2,0.2,0.5,0.3,0.7,0.5c0.1,0.1,0.2,0.1,0.3,0.2c0.2,0.2,0.5,0.4,0.7,0.5 c0.1,0.1,0.2,0.1,0.2,0.2c0.3,0.2,0.5,0.4,0.8,0.6c0,0,0.1,0.1,0.2,0.1c0.6,0.5,1.3,1.1,1.9,1.6c0,0,0.1,0.1,0.1,0.1 c0.3,0.2,0.5,0.5,0.8,0.7c0.1,0.1,0.1,0.1,0.2,0.2c0.2,0.2,0.4,0.4,0.7,0.7c0.1,0.1,0.1,0.2,0.2,0.2c0.2,0.2,0.4,0.4,0.6,0.7 c0.1,0.1,0.1,0.1,0.2,0.2c0.2,0.2,0.5,0.5,0.7,0.8c0,0,0.1,0.1,0.1,0.2c0.6,0.6,1.1,1.3,1.6,1.9c3,3.9,5.5,8.3,7.1,13 c1.7,4.7,2.6,9.8,2.6,15.1v13.7h0h0.3L210.8,113.9L210.8,113.9z"/><polygon fill="#010101" points="210.8 113.9 210.8 63.4 210.5 63.4 210.5 63.4 210.5 113.9 210.8 113.9"/><path fill="#010101" d="M0,62.5v19h183.7v32.4h20.4V62.5H0z"/><circle cx="1.4" cy="45" r="1.2" fill="#010101"/><circle cx="1.4" cy="40" r="1.2" fill="#010101"/><circle cx="1.4" cy="35.1" r="1.2" fill="#010101"/><circle cx="1.4" cy="49.9" r="1.2" fill="#010101"/><circle cx="6.4" cy="45" r="1.2" fill="#010101"/><circle cx="6.4" cy="40" r="1.2" fill="#010101"/><circle cx="6.4" cy="35.1" r="1.2" fill="#010101"/><circle cx="6.4" cy="49.9" r="1.2" fill="#010101"/><circle cx="11.4" cy="45" r="1.2" fill="#010101"/><circle cx="11.4" cy="40" r="1.2" fill="#010101"/><circle cx="11.4" cy="35.1" r="1.2" fill="#010101"/><circle cx="11.4" cy="49.9" r="1.2" fill="#010101"/><circle cx="16.4" cy="45" r="1.2" fill="#010101"/><circle cx="16.4" cy="40" r="1.2" fill="#010101"/><circle cx="16.4" cy="35.1" r="1.2" fill="#010101"/><circle cx="16.4" cy="49.9" r="1.2" fill="#010101"/><circle cx="21.4" cy="45" r="1.2" fill="#010101"/><circle cx="21.4" cy="40" r="1.2" fill="#010101"/><circle cx="21.4" cy="35.1" r="1.2" fill="#010101"/><circle cx="21.4" cy="49.9" r="1.2" fill="#010101"/><circle cx="26.4" cy="45" r="1.2" fill="#010101"/><circle cx="26.4" cy="40" r="1.2" fill="#010101"/><circle cx="26.4" cy="35.1" r="1.2" fill="#010101"/><circle cx="26.4" cy="49.9" r="1.2" fill="#010101"/><circle cx="31.4" cy="45" r="1.2" fill="#010101"/><circle cx="31.4" cy="40" r="1.2" fill="#010101"/><circle cx="31.4" cy="35.1" r="1.2" fill="#010101"/><circle cx="31.4" cy="49.9" r="1.2" fill="#010101"/><circle cx="36.4" cy="45" r="1.2" fill="#010101"/><circle cx="36.4" cy="40" r="1.2" fill="#010101"/><circle cx="36.4" cy="35.1" r="1.2" fill="#010101"/><circle cx="36.4" cy="49.9" r="1.2" fill="#010101"/><circle cx="41.3" cy="45" r="1.2" fill="#010101"/><circle cx="41.3" cy="40" r="1.2" fill="#010101"/><circle cx="41.3" cy="35.1" r="1.2" fill="#010101"/><circle cx="41.3" cy="49.9" r="1.2" fill="#010101"/><circle cx="46.3" cy="45" r="1.2" fill="#010101"/><circle cx="46.3" cy="40" r="1.2" fill="#010101"/><circle cx="46.3" cy="35.1" r="1.2" fill="#010101"/><circle cx="46.3" cy="49.9" r="1.2" fill="#010101"/><circle cx="51.3" cy="45" r="1.2" fill="#010101"/><circle cx="51.3" cy="40" r="1.2" fill="#010101"/><circle cx="51.3" cy="35.1" r="1.2" fill="#010101"/><circle cx="51.3" cy="49.9" r="1.2" fill="#010101"/><circle cx="56.3" cy="45" r="1.2" fill="#010101"/><circle cx="56.3" cy="40" r="1.2" fill="#010101"/><circle cx="56.3" cy="35.1" r="1.2" fill="#010101"/><circle cx="56.3" cy="49.9" r="1.2" fill="#010101"/><circle cx="61.3" cy="45" r="1.2" fill="#010101"/><circle cx="61.3" cy="40" r="1.2" fill="#010101"/><circle cx="61.3" cy="35.1" r="1.2" fill="#010101"/><circle cx="61.3" cy="49.9" r="1.2" fill="#010101"/><circle cx="66.3" cy="45" r="1.2" fill="#010101"/><circle cx="66.3" cy="40" r="1.2" fill="#010101"/><circle cx="66.3" cy="35.1" r="1.2" fill="#010101"/><circle cx="66.3" cy="49.9" r="1.2" fill="#010101"/><circle cx="71.3" cy="45" r="1.2" fill="#010101"/><circle cx="71.3" cy="40" r="1.2" fill="#010101"/><circle cx="71.3" cy="35.1" r="1.2" fill="#010101"/><circle cx="71.3" cy="49.9" r="1.2" fill="#010101"/><circle cx="76.3" cy="45" r="1.2" fill="#010101"/><circle cx="76.3" cy="40" r="1.2" fill="#010101"/><circle cx="76.3" cy="35.1" r="1.2" fill="#010101"/><circle cx="76.3" cy="49.9" r="1.2" fill="#010101"/><circle cx="81.3" cy="45" r="1.2" fill="#010101"/><circle cx="81.3" cy="40" r="1.2" fill="#010101"/><circle cx="81.3" cy="35.1" r="1.2" fill="#010101"/><circle cx="81.3" cy="49.9" r="1.2" fill="#010101"/><circle cx="86.3" cy="45" r="1.2" fill="#010101"/><circle cx="86.3" cy="40" r="1.2" fill="#010101"/><circle cx="86.3" cy="35.1" r="1.2" fill="#010101"/><circle cx="86.3" cy="49.9" r="1.2" fill="#010101"/><circle cx="91.3" cy="45" r="1.2" fill="#010101"/><circle cx="91.3" cy="40" r="1.2" fill="#010101"/><circle cx="91.3" cy="35.1" r="1.2" fill="#010101"/><circle cx="91.3" cy="49.9" r="1.2" fill="#010101"/><circle cx="96.3" cy="45" r="1.2" fill="#010101"/><circle cx="96.3" cy="40" r="1.2" fill="#010101"/><circle cx="96.3" cy="35.1" r="1.2" fill="#010101"/><circle cx="96.3" cy="49.9" r="1.2" fill="#010101"/><circle cx="101.3" cy="45" r="1.2" fill="#010101"/><circle cx="101.3" cy="40" r="1.2" fill="#010101"/><circle cx="101.3" cy="35.1" r="1.2" fill="#010101"/><circle cx="101.3" cy="49.9" r="1.2" fill="#010101"/><circle cx="106.3" cy="45" r="1.2" fill="#010101"/><circle cx="106.3" cy="40" r="1.2" fill="#010101"/><circle cx="106.3" cy="35.1" r="1.2" fill="#010101"/><circle cx="106.3" cy="49.9" r="1.2" fill="#010101"/><circle cx="111.3" cy="45" r="1.2" fill="#010101"/><circle cx="111.3" cy="40" r="1.2" fill="#010101"/><circle cx="111.3" cy="35.1" r="1.2" fill="#010101"/><circle cx="111.3" cy="49.9" r="1.2" fill="#010101"/><circle cx="116.3" cy="45" r="1.2" fill="#010101"/><circle cx="116.3" cy="40" r="1.2" fill="#010101"/><circle cx="116.3" cy="35.1" r="1.2" fill="#010101"/><circle cx="116.3" cy="49.9" r="1.2" fill="#010101"/><circle cx="121.2" cy="45" r="1.2" fill="#010101"/><circle cx="121.2" cy="40" r="1.2" fill="#010101"/><circle cx="121.2" cy="35.1" r="1.2" fill="#010101"/><circle cx="121.2" cy="49.9" r="1.2" fill="#010101"/><path fill="#010101" d="M150.6,28.6c-7.5,0-13.6,6.1-13.6,13.6s6.1,13.6,13.6,13.6c7.5,0,13.6-6.1,13.6-13.6S158.1,28.6,150.6,28.6 z M150.8,49.1c-3.7,0-6.7-3-6.7-6.7c0-3.7,3-6.7,6.7-6.7c3.7,0,6.7,3,6.7,6.7C157.5,46.1,154.5,49.1,150.8,49.1z"/><circle cx="150.8" cy="42" r="2.1" fill="#010101"/></g></svg>