<svg xmlns="http://www.w3.org/2000/svg" xmlns:xlink="http://www.w3.org/1999/xlink" id="Layer_1" x="0" y="0" enable-background="new 0 0 60 60" version="1.1" viewBox="0 0 60 60" xml:space="preserve"><g><g><circle cx="30" cy="30" r="29.5" fill="none" stroke="#259A47" stroke-dasharray="3.985 1.992" stroke-miterlimit="10" stroke-width=".983"/></g><path fill="#DEDEDD" d="M43.2,16.8H16.8c-1,0-1.8,0.8-1.8,1.8v22.8c0,1,0.8,1.8,1.8,1.8h26.4c1,0,1.8-0.8,1.8-1.8V18.6 C45,17.6,44.2,16.8,43.2,16.8z M38.7,18c0.7,0,1.2,0.5,1.2,1.2s-0.5,1.2-1.2,1.2c-0.7,0-1.2-0.5-1.2-1.2S38,18,38.7,18z M35.4,18 c0.7,0,1.2,0.5,1.2,1.2s-0.5,1.2-1.2,1.2c-0.7,0-1.2-0.5-1.2-1.2S34.7,18,35.4,18z M43.2,41.4H16.8V21.6h26.4V41.4z M42,20.4 c-0.7,0-1.2-0.5-1.2-1.2S41.3,18,42,18s1.2,0.5,1.2,1.2S42.7,20.4,42,20.4z"/></g></svg>