<svg xmlns="http://www.w3.org/2000/svg" xmlns:xlink="http://www.w3.org/1999/xlink" id="Layer_1" x="0" y="0" enable-background="new 0 0 60 60" version="1.1" viewBox="0 0 60 60" xml:space="preserve"><g><g><circle cx="30" cy="30" r="29.5" fill="none" stroke="#259A47" stroke-dasharray="3.985 1.992" stroke-miterlimit="10" stroke-width=".983"/></g><path fill="#DEDEDD" d="M38.2,30.9c0,4.5,4,6.1,4,6.1c0,0.1-0.6,2.2-2.1,4.3c-1.3,1.8-2.5,3.6-4.6,3.7c-2,0-2.7-1.2-5-1.2 c-2.3,0-3,1.2-4.9,1.2c-2,0.1-3.5-2-4.7-3.8c-2.6-3.7-4.5-10.5-1.9-15.1c1.3-2.3,3.7-3.7,6.2-3.8c1.9,0,3.8,1.3,5,1.3 c1.2,0,3.4-1.6,5.7-1.4c1,0,3.7,0.4,5.5,3C41.3,25.3,38.2,27.1,38.2,30.9L38.2,30.9z M34.4,19.8c1-1.3,1.8-3,1.6-4.8 c-1.5,0.1-3.3,1-4.4,2.3c-1,1.1-1.8,2.9-1.6,4.6C31.6,22,33.4,21.1,34.4,19.8L34.4,19.8z"/></g></svg>