<svg xmlns="http://www.w3.org/2000/svg" xmlns:xlink="http://www.w3.org/1999/xlink" id="Layer_1" x="0" y="0" enable-background="new 0 0 60 60" version="1.1" viewBox="0 0 60 60" xml:space="preserve"><g><g><circle cx="30.2" cy="30.2" r="29.5" fill="none" stroke="#259A47" stroke-dasharray="3.985 1.992" stroke-miterlimit="10" stroke-width=".983"/></g><g><g id="WATER_1_"><g><rect width=".9" height="3.5" x="29.8" y="39.1" fill="#DEDEDD"/></g><g><rect width=".9" height="3.5" x="24.5" y="37.6" fill="#DEDEDD" transform="matrix(-0.8651 -0.5016 0.5016 -0.8651 26.7852 85.9646)"/></g><g><rect width="3.5" height=".9" x="19.4" y="24.5" fill="#DEDEDD" transform="matrix(-0.8655 -0.5009 0.5009 -0.8655 26.885 57.1424)"/></g><g><rect width="3.5" height=".9" x="23.2" y="20.7" fill="#DEDEDD" transform="matrix(-0.4994 -0.8664 0.8664 -0.4994 19.1701 53.2827)"/></g><g><rect width="3.5" height=".9" x="33.8" y="39" fill="#DEDEDD" transform="matrix(-0.4994 -0.8664 0.8664 -0.4994 19.1293 89.8468)"/></g><g><rect width="3.5" height=".9" x="17.9" y="29.8" fill="#DEDEDD"/></g><g><rect width=".9" height="3.5" x="20.6" y="33.7" fill="#DEDEDD" transform="matrix(-0.497 -0.8678 0.8678 -0.497 0.6626 71.3229)"/></g><path fill="#DEDEDD" d="M30.2,15.3c-8.3,0-15,6.7-15,15s6.7,15,15,15c8.3,0,15-6.7,15-15C45.2,22,38.5,15.3,30.2,15.3z M36.8,19.8l-1.7,3l-0.8-0.4l1.7-3L36.8,19.8z M40.7,23.7l0.4,0.8l-3,1.7l-0.4-0.8L40.7,23.7z M39.1,29.8h3.5v0.9h-3.5V29.8z M30.2,43.2c-7.1,0-12.9-5.8-12.9-12.9c0-7,5.6-12.7,12.5-12.9v12.9c0,0.2,0.1,0.3,0.2,0.4l11,6.7C38.8,40.8,34.8,43.2,30.2,43.2 z"/></g></g></g></svg>