<svg xmlns="http://www.w3.org/2000/svg" xmlns:xlink="http://www.w3.org/1999/xlink" id="Layer_1" x="0" y="0" enable-background="new 0 0 60 60" version="1.1" viewBox="0 0 60 60" xml:space="preserve"><g><g><circle cx="30" cy="30" r="29.5" fill="none" stroke="#259A47" stroke-dasharray="3.985 1.992" stroke-miterlimit="10" stroke-width=".983"/></g><g><g><path fill="#DEDEDD" d="M43.7,36.8c-0.1,0-2-0.1-2-2.2v0.1C40.4,21.5,33.8,18.1,30,18.1c-3.8,0-10.6,3.5-11.7,16.5l0,0 c0,0-0.4,2.1-2,2.2c-0.1,0.1-0.7,0.2-0.7,0.9c0,0.6,0,1.8,0,1.8s8.7-0.9,14.4-0.9s14.4,0.9,14.4,0.9s0-1.2,0-1.8 C44.4,37.1,44,36.9,43.7,36.8z"/><circle cx="30" cy="17.1" r="2.1" fill="#DEDEDD"/></g><path fill="#DEDEDD" d="M30,45c2.3,0,4.1-1.9,4.1-4.1c0,0-1.2-0.4-4.1-0.4s-4.1,0.4-4.1,0.4C25.9,43.1,27.7,45,30,45z"/></g></g></svg>