<svg xmlns="http://www.w3.org/2000/svg" xmlns:xlink="http://www.w3.org/1999/xlink" id="Layer_1" x="0" y="0" enable-background="new 0 0 60 60" version="1.1" viewBox="0 0 60 60" xml:space="preserve"><g><g><circle cx="30" cy="30" r="29.5" fill="none" stroke="#259A47" stroke-dasharray="3.985 1.992" stroke-miterlimit="10" stroke-width=".983"/></g><g><g><polygon fill="#DEDEDD" fill-rule="evenodd" points="21.3 45 16.6 43.3 16.6 36.3 21.3 38" clip-rule="evenodd"/><polygon fill="#DEDEDD" fill-rule="evenodd" points="22.2 45 26.9 43.3 26.9 36.3 22.2 38" clip-rule="evenodd"/><polygon fill="#DEDEDD" fill-rule="evenodd" points="17 35.8 21.9 34.5 26.3 35.9 21.9 37.4" clip-rule="evenodd"/></g><g><polygon fill="#DEDEDD" fill-rule="evenodd" points="15.6 35.3 10.9 33.6 10.9 26.6 15.6 28.2" clip-rule="evenodd"/><polygon fill="#DEDEDD" fill-rule="evenodd" points="16.5 35.3 21.3 33.6 21.3 26.6 16.5 28.2" clip-rule="evenodd"/><polygon fill="#DEDEDD" fill-rule="evenodd" points="11.4 26.1 16.2 24.7 20.7 26.2 16.2 27.7" clip-rule="evenodd"/></g><g><polygon fill="#DEDEDD" fill-rule="evenodd" points="26.7 35.3 22 33.6 22 26.6 26.7 28.2" clip-rule="evenodd"/><polygon fill="#DEDEDD" fill-rule="evenodd" points="27.6 35.3 32.4 33.6 32.4 26.6 27.6 28.2" clip-rule="evenodd"/><polygon fill="#DEDEDD" fill-rule="evenodd" points="22.5 26.1 27.3 24.7 31.7 26.2 27.3 27.7" clip-rule="evenodd"/></g><g><polygon fill="#DEDEDD" fill-rule="evenodd" points="32.4 25.5 27.6 23.8 27.6 16.9 32.4 18.5" clip-rule="evenodd"/><polygon fill="#DEDEDD" fill-rule="evenodd" points="33.3 25.5 38 23.8 38 16.9 33.3 18.5" clip-rule="evenodd"/><polygon fill="#DEDEDD" fill-rule="evenodd" points="28.1 16.4 32.9 15 37.4 16.4 32.9 18" clip-rule="evenodd"/></g><g><polygon fill="#DEDEDD" fill-rule="evenodd" points="43.5 25.5 38.7 23.8 38.7 16.9 43.5 18.5" clip-rule="evenodd"/><polygon fill="#DEDEDD" fill-rule="evenodd" points="44.3 25.5 49.1 23.8 49.1 16.9 44.3 18.5" clip-rule="evenodd"/><polygon fill="#DEDEDD" fill-rule="evenodd" points="39.2 16.4 44 15 48.5 16.4 44 18" clip-rule="evenodd"/></g></g></g></svg>