<svg xmlns="http://www.w3.org/2000/svg" xmlns:xlink="http://www.w3.org/1999/xlink" id="Layer_1" x="0" y="0" enable-background="new 0 0 60 60" version="1.1" viewBox="0 0 60 60" xml:space="preserve"><g><circle cx="30" cy="30" r="29.5" fill="none" stroke="#259A47" stroke-dasharray="3.985 1.992" stroke-miterlimit="10" stroke-width=".983"/></g><g><path fill="#DEDEDD" d="M27,43.2c0.6,1.1,1.7,1.8,3,1.8s2.4-0.7,3-1.8H27z"/><path fill="#DEDEDD" d="M33.3,37.5c0.6,0,1.2-0.6,1.2-1.2c0-5.1,4.5-5.8,4.5-12.3c0-5-4-9-9-9c-5,0-9,4-9,9c0,6.5,4.5,7.2,4.5,12.3 c0,0.6,0.6,1.2,1.2,1.2H33.3z"/><path fill="#DEDEDD" d="M33.9,39.2c0,0.4-0.3,0.8-0.8,0.8h-6.3c-0.4,0-0.8-0.3-0.8-0.8l0,0c0-0.4,0.3-0.8,0.8-0.8h6.3 C33.6,38.4,33.9,38.7,33.9,39.2L33.9,39.2z"/><path fill="#DEDEDD" d="M33.9,41.5c0,0.4-0.3,0.8-0.8,0.8h-6.3c-0.4,0-0.8-0.3-0.8-0.8l0,0c0-0.4,0.3-0.8,0.8-0.8h6.3 C33.6,40.8,33.9,41.1,33.9,41.5L33.9,41.5z"/></g></svg>