<svg xmlns="http://www.w3.org/2000/svg" xmlns:xlink="http://www.w3.org/1999/xlink" id="Layer_1" x="0" y="0" enable-background="new 0 0 60 60" version="1.1" viewBox="0 0 60 60" xml:space="preserve"><g><g><circle cx="30" cy="30" r="29.5" fill="none" stroke="#259A47" stroke-dasharray="3.985 1.992" stroke-miterlimit="10" stroke-width=".983"/></g><g><path fill="#DEDEDD" d="M22.9,45c-2.8,0-5.4-2.1-5.4-5.5v-5.9c0-1.3-0.6-2.3-1.8-2.3v-2.5c1.2,0,1.8-1,1.8-2.3v-5.9 c0-3.4,2.6-5.5,5.4-5.5H25v2.9h-2.1c-1.2,0-2.1,1-2.1,2.6v6.4c0,1.5-0.4,2.6-1.6,3.1c1.1,0.5,1.6,1.7,1.6,3.1v6.4 c0,1.6,1,2.6,2.1,2.6H25V45H22.9z"/><path fill="#DEDEDD" d="M35,42.1h2.1c1.2,0,2.2-1,2.2-2.6v-6.4c0-1.5,0.5-2.6,1.6-3.1c-1.1-0.5-1.6-1.7-1.6-3.1v-6.4 c0-1.6-1-2.6-2.2-2.6H35V15h2.1c2.8,0,5.4,2.1,5.4,5.5v5.9c0,1.3,0.6,2.3,1.8,2.3v2.5c-1.2,0-1.8,1-1.8,2.3v5.9 c0,3.4-2.6,5.5-5.4,5.5H35V42.1z"/></g></g></svg>