<svg xmlns="http://www.w3.org/2000/svg" xmlns:xlink="http://www.w3.org/1999/xlink" width="161" height="48" version="1.1" viewBox="0 0 161 48"><title>Path 128 + Oval 102 + Oval 103</title><desc>Created with Sketch.</desc><g id="circleci" fill="none" fill-rule="evenodd" stroke="none" stroke-width="1"><g id="circleci---deploy" transform="translate(-617.000000, -322.000000)"><g id="Path-128-+-Oval-102-+-Oval-103" transform="translate(617.000000, 326.000000)"><path id="Path-128" stroke="#FCFCFC" stroke-width="8" d="M18.3437428,14.3193783 C18.3437428,14.3193783 47.6367187,-20.789063 81.421875,19.3281251 C115.207031,59.4453131 140.974305,26.4740658 140.974305,26.4740658" opacity=".496"/><path id="Oval-102" fill="#FCFCFC" d="M12.5,32 C19.4035594,32 25,26.4035594 25,19.5 C25,12.5964406 19.4035594,7 12.5,7 C5.59644063,7 0,12.5964406 0,19.5 C0,26.4035594 5.59644063,32 12.5,32 Z M12.3333333,24.8333333 C15.3708995,24.8333333 17.8333333,22.3708995 17.8333333,19.3333333 C17.8333333,16.2957672 15.3708995,13.8333333 12.3333333,13.8333333 C9.29576721,13.8333333 6.83333333,16.2957672 6.83333333,19.3333333 C6.83333333,22.3708995 9.29576721,24.8333333 12.3333333,24.8333333 Z"/><path id="Oval-103" fill="#FCFCFC" d="M148.5,32 C155.403559,32 161,26.4035594 161,19.5 C161,12.5964406 155.403559,7 148.5,7 C141.596441,7 136,12.5964406 136,19.5 C136,26.4035594 141.596441,32 148.5,32 Z M148.333333,24.8333333 C151.370899,24.8333333 153.833333,22.3708995 153.833333,19.3333333 C153.833333,16.2957672 151.370899,13.8333333 148.333333,13.8333333 C145.295767,13.8333333 142.833333,16.2957672 142.833333,19.3333333 C142.833333,22.3708995 145.295767,24.8333333 148.333333,24.8333333 Z"/></g></g></g></svg>