<svg xmlns="http://www.w3.org/2000/svg" xmlns:xlink="http://www.w3.org/1999/xlink" width="24" height="19" version="1.1" viewBox="0 0 24 19"><title>icon-invite</title><desc>Created with Sketch.</desc><g id="1.0-Builds" fill="none" fill-rule="evenodd" stroke="none" stroke-width="1"><g id="00-main-nav-icons-assets" fill="#FFF" transform="translate(-23.000000, -376.000000)"><g id="Group"><g id="Layout/Sidebar"><g id="Nav" transform="translate(0.000000, 70.387597)"><g id="Invite" transform="translate(0.000000, 280.000000)"><g id="icon-invite" transform="translate(23.000000, 26.000000)"><path id="Fill-137" d="M12.616,10.776 C14.06,9.68 15,7.949 15,6 C15,2.691 12.308,0 9,0 C5.691,0 3,2.691 3,6 C3,7.949 3.938,9.68 5.383,10.775 C2.504,12.052 0.381,14.781 0,18 L2.021,18 C2.535,14.645 5.503,12 9,12 C12.497,12 15.455,14.645 15.969,18 L17.99,18 C17.609,14.781 15.491,12.053 12.616,10.776 L12.616,10.776 Z M5,6 C5,3.795 6.794,2 9,2 C11.206,2 13,3.795 13,6 C13,8.205 11.206,10 9,10 C6.794,10 5,8.205 5,6 L5,6 Z"/><path id="Fill-138" d="M20.46,10.6459655 C21.26,9.63696551 21.72,8.37596551 21.72,6.99596551 C21.72,3.36696551 18.519,0.606965505 15,1.04596551 C15.27,1.38696551 15.51,1.74596551 15.72,2.12596551 C15.88,2.40596551 16.03,2.70596551 16.15,3.01596551 C18.493,3.40596551 19.72,5.15596551 19.72,6.99596551 C19.72,8.32596551 19.06,9.49596551 18.15,10.1759655 C17.88,10.3869655 17.72,10.6959655 17.72,11.0359655 L17.72,11.0759655 C17.72,11.5559655 18.06,11.9759655 18.54,12.0859655 C20.31,12.4559655 21.73,14.0359655 21.73,15.9959655 L23.71,15.9959655 C23.71,13.6659655 22.39,11.6459655 20.46,10.6459655"/></g></g></g></g></g></g></g></svg>