<svg xmlns="http://www.w3.org/2000/svg" xmlns:xlink="http://www.w3.org/1999/xlink" width="20" height="18" version="1.1" viewBox="0 0 20 18"><title>Icon/Warning</title><desc>Created with Sketch.</desc><defs><linearGradient id="linearGradient-1" x1="50%" x2="50%" y1="0%" y2="100%"><stop offset="0%" stop-color="#FFF"/><stop offset="100%" stop-color="#000"/></linearGradient></defs><g id="13.0-Iconography" fill="none" fill-rule="evenodd" stroke="none" stroke-width="1"><g id="13.1-Icons" transform="translate(-103.000000, -662.000000)"><g id="State-Icons" transform="translate(104.000000, 412.000000)"><g id="Feedback" transform="translate(0.000000, 130.000000)"><g id="Icon/Warning" transform="translate(0.000000, 121.000000)"><polygon id="Triangle-2" fill="#FFC030" points="9 -1.093 18.82 16.366 -.821 16.366"/><path id="Rectangle-6-Copy-2" fill="#FFF" d="M8,5.00292933 C8,4.44902676 8.44386482,4 9,4 C9.55228475,4 10,4.43788135 10,5.00292933 L10,9.99707067 C10,10.5509732 9.55613518,11 9,11 C8.44771525,11 8,10.5621186 8,9.99707067 L8,5.00292933 Z M8,13 C8,12.4477153 8.44386482,12 9,12 C9.55228475,12 10,12.4438648 10,13 C10,13.5522847 9.55613518,14 9,14 C8.44771525,14 8,13.5561352 8,13 Z"/></g></g></g></g></g></svg>