<svg xmlns="http://www.w3.org/2000/svg" xmlns:xlink="http://www.w3.org/1999/xlink" width="22" height="25" version="1.1" viewBox="0 0 22 25"><title>Icon/Analytics</title><desc>Created with Sketch.</desc><defs><linearGradient id="linearGradient-1" x1="50%" x2="50%" y1="0%" y2="100%"><stop offset="0%" stop-color="#FFF"/><stop offset="100%" stop-color="#000"/></linearGradient></defs><g id="13.0-Iconography" fill="none" fill-rule="evenodd" stroke="none" stroke-width="1"><g id="13.1-Icons" fill="#CCC" transform="translate(-224.000000, -868.000000)"><g id="UI" transform="translate(105.000000, 767.028347)"><g id="Navigation" transform="translate(0.000000, 47.000000)"><g id="On-Grey" transform="translate(23.000000, 53.000000)"><g id="Icon/Analytics-+-ANALYTICS" transform="translate(81.000000, 1.000000)"><path id="Icon/Analytics" d="M35,24 L37,24 L37,20.001 L35,20.001 L35,24 Z M31,24 L33,24 L33,14 L31,14 L31,24 Z M27,24 L29,24 L29,0 L27,0 L27,24 Z M23,24 L25,24 L25,8 L23,8 L23,24 Z M19,24 L21,24 L21,4 L19,4 L19,24 Z M15,23.996 L17,23.996 L17,16 L15,16 L15,23.996 Z" transform="translate(26.000000, 12.000000) scale(-1, 1) translate(-26.000000, -12.000000)"/></g></g></g></g></g></g></svg>