<svg xmlns="http://www.w3.org/2000/svg" xmlns:xlink="http://www.w3.org/1999/xlink" width="24" height="22" version="1.1" viewBox="0 0 24 22"><title>Notif/Default</title><desc>Created with Sketch.</desc><defs><linearGradient id="linearGradient-1" x1="50%" x2="50%" y1="0%" y2="100%"><stop offset="0%" stop-color="#FFF"/><stop offset="100%" stop-color="#000"/></linearGradient></defs><g id="13.0-Iconography" fill="none" fill-rule="evenodd" stroke="none" stroke-width="1"><g id="13.1-Icons" fill="#999" transform="translate(-289.000000, -1258.000000)"><g id="UI" transform="translate(105.000000, 767.028347)"><g id="Notif/Default" transform="translate(184.000000, 490.971653)"><path id="Fill-44" d="M21,0 L3,0 C1.346,0 0,1.346 0,3 L0,15 C0,16.654 1.346,18 3,18 L17.299,18 C17.524,18 17.746,18.078 17.923,18.219 L22.375,21.781 C22.556,21.925 22.777,22 23,22 C23.147,22 23.296,21.967 23.434,21.901 C23.779,21.735 24,21.384 24,21 L24,3 C24,1.346 22.654,0 21,0 L21,0 Z"/></g></g></g></g></svg>