<svg xmlns="http://www.w3.org/2000/svg" xmlns:xlink="http://www.w3.org/1999/xlink" width="12" height="8" version="1.1" viewBox="0 0 12 8"><title>arrow icon</title><desc>Created with Sketch.</desc><defs><linearGradient id="linearGradient-1" x1="50%" x2="50%" y1="0%" y2="100%"><stop offset="0%" stop-color="#FFF"/><stop offset="100%" stop-color="#000"/></linearGradient></defs><g id="13.0-Iconography" fill="none" fill-rule="evenodd" stroke="none" stroke-width="1"><g id="13.1-Icons" fill="#3D414A" transform="translate(-390.000000, -1021.000000)"><path id="arrow-icon" d="M396.703565,1025.11778 L393.169473,1021.58369 C392.784811,1021.19902 392.781049,1020.5621 393.171573,1020.17157 C393.56482,1019.77833 394.194322,1019.78011 394.583686,1020.16947 L398.753007,1024.33879 C398.778977,1024.36006 398.804158,1024.38284 398.828439,1024.40712 C399.024769,1024.60345 399.121446,1024.86206 399.120171,1025.11958 C399.12053,1025.3759 399.023841,1025.63301 398.828427,1025.82843 C398.804186,1025.85267 398.779047,1025.87541 398.753122,1025.89665 L394.583698,1030.06607 C394.194333,1030.45544 393.564831,1030.45722 393.171584,1030.06397 C392.78106,1029.67345 392.784823,1029.03652 393.169484,1028.65186 L396.703565,1025.11778 Z" transform="translate(396.000000, 1025.000000) rotate(-270.000000) translate(-396.000000, -1025.000000)"/></g></g></svg>