<svg xmlns="http://www.w3.org/2000/svg" xmlns:xlink="http://www.w3.org/1999/xlink" width="18" height="18" version="1.1" viewBox="0 0 18 18"><title>Add</title><desc>Created with Sketch.</desc><defs><linearGradient id="linearGradient-1" x1="50%" x2="50%" y1="0%" y2="100%"><stop offset="0%" stop-color="#FFF"/><stop offset="100%" stop-color="#000"/></linearGradient></defs><g id="13.0-Iconography" fill="none" fill-rule="evenodd" stroke="none" stroke-width="1"><g id="13.1-Icons" transform="translate(-104.000000, -453.000000)"><g id="State-Icons" transform="translate(104.000000, 412.000000)"><g id="Add-+-Icon/Remove"><g id="Add" transform="translate(0.000000, 41.000000)"><path id="Path-Copy-2" fill="#3DC1D9" d="M9,0 C4.03725,0 0,4.03725 0,9 C0,13.96275 4.03725,18 9,18 C13.96275,18 18,13.96275 18,9 C18,4.03725 13.96275,0 9,0"/><path id="Rectangle-4-Copy-2" fill="#FFF" d="M10,8 L10,4.00247329 C10,3.45576096 9.55228475,3 9,3 C8.44386482,3 8,3.44882258 8,4.00247329 L8,8 L4.00247329,8 C3.45576096,8 3,8.44771525 3,9 C3,9.55613518 3.44882258,10 4.00247329,10 L8,10 L8,13.9975267 C8,14.544239 8.44771525,15 9,15 C9.55613518,15 10,14.5511774 10,13.9975267 L10,10 L13.9975267,10 C14.544239,10 15,9.55228475 15,9 C15,8.44386482 14.5511774,8 13.9975267,8 L10,8 Z"/></g></g></g></g></g></svg>