<svg xmlns="http://www.w3.org/2000/svg" xmlns:xlink="http://www.w3.org/1999/xlink" width="18" height="18" version="1.1" viewBox="0 0 18 18"><title>Icon/Remove</title><desc>Created with Sketch.</desc><defs><linearGradient id="linearGradient-1" x1="50%" x2="50%" y1="0%" y2="100%"><stop offset="0%" stop-color="#FFF"/><stop offset="100%" stop-color="#000"/></linearGradient></defs><g id="13.0-Iconography" fill="none" fill-rule="evenodd" stroke="none" stroke-width="1"><g id="13.1-Icons" transform="translate(-104.000000, -493.000000)"><g id="State-Icons" transform="translate(104.000000, 412.000000)"><g id="Add-+-Icon/Remove"><g id="Icon/Remove" transform="translate(0.000000, 81.000000)"><path id="Path-Copy-2" fill="#999" d="M9,0 C4.03725,0 0,4.03725 0,9 C0,13.96275 4.03725,18 9,18 C13.96275,18 18,13.96275 18,9 C18,4.03725 13.96275,0 9,0"/><g id="Rectangle-8-+-Rectangle-8-Copy" fill="#FFF" transform="translate(9.000000, 9.000000) rotate(-45.000000) translate(-9.000000, -9.000000) translate(3.000000, 3.000000)"><rect id="Rectangle-8" width="12" height="2" x="0" y="5" rx="40"/><rect id="Rectangle-8-Copy" width="12" height="2" x="0" y="5" rx="40" transform="translate(6.000000, 6.000000) rotate(-90.000000) translate(-6.000000, -6.000000)"/></g></g></g></g></g></g></svg>